<svg width="266" height="98" viewBox="0 0 266 98" fill="none" xmlns="http://www.w3.org/2000/svg">
<g filter="url(#filter0_d_4_52)">
<path d="M95.8061 61.267C101.77 64.851 107.281 66.297 112.34 65.605C117.377 64.901 121.505 61.87 124.725 56.513C127.944 51.156 128.669 46.109 126.901 41.373C125.146 36.615 121.276 32.438 115.291 28.841C109.18 25.17 103.617 23.6921 98.6005 24.409C93.5965 25.105 89.5039 28.1 86.3224 33.394C83.141 38.689 82.3986 43.74 84.0953 48.548C85.792 53.355 89.6956 57.595 95.8061 61.267ZM118.781 23.0344C122.317 25.16 125.255 27.594 127.593 30.338C129.945 33.061 131.624 35.979 132.631 39.09C133.629 42.168 133.878 45.451 133.378 48.939C132.856 52.413 131.552 55.888 129.464 59.361C126.648 64.049 123.239 67.47 119.239 69.623C115.231 71.743 110.945 72.572 106.381 72.108C101.81 71.611 97.1172 69.916 92.3041 67.024C84.8752 62.56 80.1789 57.103 78.2154 50.654C76.2518 44.205 77.3637 37.496 81.5512 30.527C85.6757 23.6633 91.0671 19.5972 97.7252 18.3288C104.375 17.0269 111.393 18.5954 118.781 23.0344Z" fill="black"/>
<path d="M5.99023 62.66C11.2539 65.258 16.8936 66.557 22.9092 66.557C30.3148 66.557 34.0176 63.184 34.0176 56.439C34.0176 54.252 33.4251 52.486 32.2402 51.142C31.0781 49.774 28.9476 48.703 25.8486 47.929L15.7998 45.399C8.12077 43.463 4.28125 39.361 4.28125 33.095C4.28125 28.287 5.93327 24.721 9.2373 22.3965C12.5413 20.0495 17.11 18.876 22.9434 18.876C25.9967 18.876 28.8564 19.2064 31.5225 19.8672C34.1885 20.528 36.4215 21.4167 38.2217 22.5332L36.5127 27.353C34.986 26.509 32.958 25.757 30.4287 25.097C27.9222 24.436 25.3815 24.105 22.8066 24.105C14.5579 24.105 10.4336 26.965 10.4336 32.685C10.4336 34.621 11.0602 36.182 12.3135 37.367C13.5895 38.529 15.4922 39.418 18.0215 40.033L27.626 42.357C31.7275 43.337 34.8379 44.91 36.957 47.074C39.0762 49.216 40.1357 52.27 40.1357 56.234C40.1357 61.384 38.5521 65.269 35.3848 67.89C32.2402 70.487 27.9564 71.786 22.5332 71.786C18.4772 71.786 14.8656 71.376 11.6982 70.556C8.55371 69.713 6.05859 68.721 4.21289 67.582L5.99023 62.66ZM64.7109 71H58.7637V25.678H43.2119V20.4482H80.2627V25.678H64.7109V71Z" fill="black"/>
<path d="M175.897 70.343L168.651 70.427L149.027 46.521L144.461 50.642L144.693 70.704L138.746 70.773L138.161 20.2245L144.108 20.1557L144.395 44.968L166.323 19.8986L173.74 19.8128L153.497 42.812L175.897 70.343ZM181.228 70.281L180.643 19.7329L209.626 19.3975L209.447 24.629L186.617 24.894L186.808 41.435L208.511 41.184L208.57 46.345L186.868 46.596L187.081 64.984L210.663 64.711L210.45 69.943L181.228 70.281ZM255.273 44.266C255.191 37.203 253.309 32.086 249.626 28.916C245.944 25.745 240.616 24.2 233.644 24.281L225.715 24.373L226.18 64.6L235.101 64.496C241.754 64.419 246.793 62.686 250.217 59.297C253.664 55.884 255.35 50.874 255.273 44.266ZM261.594 44.022C261.689 52.248 259.426 58.552 254.806 62.935C250.185 67.318 243.693 69.558 235.331 69.655L220.327 69.829L219.742 19.2804L233.755 19.1182C237.97 19.0694 241.747 19.5271 245.085 20.4911C248.423 21.4324 251.323 22.9028 253.784 24.902C256.268 26.879 258.178 29.489 259.515 32.732C260.851 35.953 261.544 39.716 261.594 44.022Z" fill="black"/>
<path d="M138 77.006H238.849" stroke="black" stroke-width="4"/>
<path d="M20 77H65" stroke="black" stroke-width="4"/>
<line x1="79.7519" y1="88.2304" x2="117.497" y2="10.633" stroke="black" stroke-width="5"/>
<line x1="117.825" y1="13.3277" x2="110.579" y2="4.6388" stroke="black" stroke-width="5"/>
<rect x="96.4531" y="39" width="4.81332" height="12.4981" transform="rotate(25.8691 96.4531 39)" fill="black"/>
<line x1="93.7519" y1="85.1927" x2="131.497" y2="7.59537" stroke="black" stroke-width="5"/>
<line x1="131.825" y1="10.2901" x2="124.579" y2="1.60112" stroke="black" stroke-width="5"/>
<rect x="110.453" y="35.9623" width="4.81332" height="12.4981" transform="rotate(25.8691 110.453 35.9623)" fill="black"/>
</g>
<defs>
<filter id="filter0_d_4_52" x="0.212891" y="0" width="265.384" height="97.324" filterUnits="userSpaceOnUse" color-interpolation-filters="sRGB">
<feFlood flood-opacity="0" result="BackgroundImageFix"/>
<feColorMatrix in="SourceAlpha" type="matrix" values="0 0 0 0 0 0 0 0 0 0 0 0 0 0 0 0 0 0 127 0" result="hardAlpha"/>
<feOffset dy="4"/>
<feGaussianBlur stdDeviation="2"/>
<feComposite in2="hardAlpha" operator="out"/>
<feColorMatrix type="matrix" values="0 0 0 0 0 0 0 0 0 0 0 0 0 0 0 0 0 0 0.25 0"/>
<feBlend mode="normal" in2="BackgroundImageFix" result="effect1_dropShadow_4_52"/>
<feBlend mode="normal" in="SourceGraphic" in2="effect1_dropShadow_4_52" result="shape"/>
</filter>
</defs>
</svg>
