<svg width="258" height="90" viewBox="0 0 258 90" fill="none" xmlns="http://www.w3.org/2000/svg">
<path d="M91.8061 61.267C97.77 64.851 103.281 66.297 108.34 65.605C113.377 64.901 117.505 61.87 120.725 56.513C123.944 51.156 124.669 46.109 122.901 41.373C121.146 36.615 117.276 32.438 111.291 28.841C105.18 25.17 99.617 23.6921 94.6005 24.409C89.5965 25.105 85.5039 28.1 82.3224 33.394C79.141 38.689 78.3986 43.74 80.0953 48.548C81.792 53.355 85.6956 57.595 91.8061 61.267ZM114.781 23.0344C118.317 25.16 121.255 27.594 123.593 30.338C125.945 33.061 127.624 35.979 128.631 39.09C129.629 42.168 129.878 45.451 129.378 48.939C128.856 52.413 127.552 55.888 125.464 59.361C122.648 64.049 119.239 67.47 115.239 69.623C111.231 71.743 106.945 72.572 102.381 72.108C97.81 71.611 93.1172 69.916 88.3041 67.024C80.8752 62.56 76.1789 57.103 74.2154 50.654C72.2518 44.205 73.3637 37.496 77.5512 30.527C81.6757 23.6633 87.0671 19.5972 93.7252 18.3288C100.375 17.0269 107.393 18.5954 114.781 23.0344Z" fill="black"/>
<path d="M1.99023 62.66C7.2539 65.258 12.8936 66.557 18.9092 66.557C26.3148 66.557 30.0176 63.184 30.0176 56.439C30.0176 54.252 29.4251 52.486 28.2402 51.142C27.0781 49.774 24.9476 48.703 21.8486 47.929L11.7998 45.399C4.12077 43.463 0.281251 39.361 0.281251 33.095C0.281251 28.287 1.93327 24.721 5.2373 22.3965C8.5413 20.0495 13.11 18.876 18.9434 18.876C21.9967 18.876 24.8564 19.2064 27.5225 19.8672C30.1885 20.528 32.4215 21.4167 34.2217 22.5332L32.5127 27.353C30.986 26.509 28.958 25.757 26.4287 25.097C23.9222 24.436 21.3815 24.105 18.8066 24.105C10.5579 24.105 6.43359 26.965 6.43359 32.685C6.43359 34.621 7.0602 36.182 8.3135 37.367C9.5895 38.529 11.4922 39.418 14.0215 40.033L23.626 42.357C27.7275 43.337 30.8379 44.91 32.957 47.074C35.0762 49.216 36.1357 52.27 36.1357 56.234C36.1357 61.384 34.5521 65.269 31.3848 67.89C28.2402 70.487 23.9564 71.786 18.5332 71.786C14.4772 71.786 10.8656 71.376 7.6982 70.556C4.55371 69.713 2.05859 68.721 0.212891 67.582L1.99023 62.66ZM60.7109 71H54.7637V25.678H39.2119V20.4482H76.2627V25.678H60.7109V71Z" fill="black"/>
<path d="M171.897 70.343L164.651 70.427L145.027 46.521L140.461 50.642L140.693 70.704L134.746 70.773L134.161 20.2245L140.108 20.1557L140.395 44.968L162.323 19.8986L169.74 19.8128L149.497 42.812L171.897 70.343ZM177.228 70.281L176.643 19.7329L205.626 19.3975L205.447 24.629L182.617 24.894L182.808 41.435L204.511 41.184L204.57 46.345L182.868 46.596L183.081 64.984L206.663 64.711L206.45 69.943L177.228 70.281ZM251.273 44.266C251.191 37.203 249.309 32.086 245.626 28.916C241.944 25.745 236.616 24.2 229.644 24.281L221.715 24.373L222.18 64.6L231.101 64.496C237.754 64.419 242.793 62.686 246.217 59.297C249.664 55.884 251.35 50.874 251.273 44.266ZM257.594 44.022C257.689 52.248 255.426 58.552 250.806 62.935C246.185 67.318 239.693 69.558 231.331 69.655L216.327 69.829L215.742 19.2804L229.755 19.1182C233.97 19.0694 237.747 19.5271 241.085 20.4911C244.423 21.4324 247.323 22.9028 249.784 24.902C252.268 26.879 254.178 29.489 255.515 32.732C256.851 35.953 257.544 39.716 257.594 44.022Z" fill="black"/>
<path d="M134 77.006H234.849" stroke="black" stroke-width="4"/>
<path d="M16 77H61" stroke="black" stroke-width="4"/>
<line x1="75.7519" y1="88.2304" x2="113.497" y2="10.633" stroke="black" stroke-width="5"/>
<line x1="113.825" y1="13.3277" x2="106.579" y2="4.6388" stroke="black" stroke-width="5"/>
<rect x="92.4531" y="39" width="4.81332" height="12.4981" transform="rotate(25.8691 92.4531 39)" fill="black"/>
<line x1="89.7519" y1="85.1927" x2="127.497" y2="7.59537" stroke="black" stroke-width="5"/>
<line x1="127.825" y1="10.2901" x2="120.579" y2="1.60112" stroke="black" stroke-width="5"/>
<rect x="106.453" y="35.9623" width="4.81332" height="12.4981" transform="rotate(25.8691 106.453 35.9623)" fill="black"/>
</svg>
