<svg width="145" height="270" viewBox="0 0 145 270" fill="" xmlns="http://www.w3.org/2000/svg">
<g filter="url(#filter0_d_1_18)">
<path d="M5 261L113.172 13.4838C123.674 -7.63659 143.629 1.99729 139.428 13.4838L31.2554 261H5Z" fill="#1D1D1D"/>
<path d="M5 261L113.172 13.4838C123.674 -7.63659 143.629 1.99729 139.428 13.4838L31.2554 261H5Z" stroke="black"/>
</g>
<g filter="url(#filter1_d_1_18)">
<path d="M140 261L31.8277 13.4838C21.3256 -7.63659 1.37144 1.99729 5.57231 13.4838L113.745 261H140Z" fill="#1D1D1D"/>
<path d="M140 261L31.8277 13.4838C21.3256 -7.63659 1.37144 1.99729 5.57231 13.4838L113.745 261H140Z" stroke="black"/>
</g>
<path d="M72 102L89 140" stroke="white" stroke-width="2"/>
<path d="M56 133L73 170" stroke="white" stroke-width="2"/>
<defs>
<filter id="filter0_d_1_18" x="0.235817" y="0.499252" width="144.267" height="269.001" filterUnits="userSpaceOnUse" color-interpolation-filters="sRGB">
<feFlood flood-opacity="0" result="BackgroundImageFix"/>
<feColorMatrix in="SourceAlpha" type="matrix" values="0 0 0 0 0 0 0 0 0 0 0 0 0 0 0 0 0 0 127 0" result="hardAlpha"/>
<feOffset dy="4"/>
<feGaussianBlur stdDeviation="2"/>
<feComposite in2="hardAlpha" operator="out"/>
<feColorMatrix type="matrix" values="0 0 0 0 0 0 0 0 0 0 0 0 0 0 0 0 0 0 0.25 0"/>
<feBlend mode="normal" in2="BackgroundImageFix" result="effect1_dropShadow_1_18"/>
<feBlend mode="normal" in="SourceGraphic" in2="effect1_dropShadow_1_18" result="shape"/>
</filter>
<filter id="filter1_d_1_18" x="0.496986" y="0.499252" width="144.267" height="269.001" filterUnits="userSpaceOnUse" color-interpolation-filters="sRGB">
<feFlood flood-opacity="0" result="BackgroundImageFix"/>
<feColorMatrix in="SourceAlpha" type="matrix" values="0 0 0 0 0 0 0 0 0 0 0 0 0 0 0 0 0 0 127 0" result="hardAlpha"/>
<feOffset dy="4"/>
<feGaussianBlur stdDeviation="2"/>
<feComposite in2="hardAlpha" operator="out"/>
<feColorMatrix type="matrix" values="0 0 0 0 0 0 0 0 0 0 0 0 0 0 0 0 0 0 0.25 0"/>
<feBlend mode="normal" in2="BackgroundImageFix" result="effect1_dropShadow_1_18"/>
<feBlend mode="normal" in="SourceGraphic" in2="effect1_dropShadow_1_18" result="shape"/>
</filter>
</defs>
</svg>
